# xmcd
#
# Track frame offsets:
#	150
#	17672
#	41948
#	56122
#	85120
#	107246
#	129779
#	147844
#	169054
#	192436
#	223384
#	246565
#	268065
#	281473
#	293555
#
# Disc length: 4181 seconds
# Revision: 0
# Processed by: cddbd v1.5.2PL0 Copyright (c) Steve Scherf et al.
# Submitted via: dBpowerAMP V12.0
#
DISCID=ea10530f
DTITLE=Chic - Real People/Tongue in Chic
DYEAR=1980
DGENRE=Disco
TTITLE0=Open Up
TTITLE1=Real People
TTITLE2=I Loved You More
TTITLE3=I Got Protection
TTITLE4=Rebels Are We
TTITLE5=Chip Off The Old Block
TTITLE6=26
TTITLE7=You Can't Do It Alone
TTITLE8=Hangin'
TTITLE9=I Feel Your Love Comin' On
TTITLE10=When You Love Someone
TTITLE11=Chic (Everybody Say)
TTITLE12=Hey Fool
TTITLE13=Sharing Love
TTITLE14=City Lights
EXTD=
EXTT0=
EXTT1=
EXTT2=
EXTT3=
EXTT4=
EXTT5=
EXTT6=
EXTT7=
EXTT8=
EXTT9=
EXTT10=
EXTT11=
EXTT12=
EXTT13=
EXTT14=
PLAYORDER=
